# xmcd
#
# Track frame offsets: 
#        183
#        14210
#        22998
#        33353
#        45448
#        60323
#        74565
#        82815
#        99038
#        113528
#        126455
#        137130
#        151230
#        162933
#        173900
#        185178
#
# Disc length: 2615 seconds
#
# Revision: 1
# Processed by: cddbd v1.5.2PL0 Copyright (c) Steve Scherf et al.
# Submitted via: ExactAudioCopy v1.0b1
#
DISCID=cc0a3510
DTITLE=Glen Campbell - Country Boy
DYEAR=1900
DGENRE=Country
TTITLE0=Country Boy ( You've Got Your Feet In L.A. )
TTITLE1=Back In The Race
TTITLE2=This Land Is Your Land
TTITLE3=Galveston
TTITLE4=Your Cheatin' Heart
TTITLE5=Tennessee Home
TTITLE6=12-String Special
TTITLE7=California
TTITLE8=Rhinestone Cowboy
TTITLE9=Country Girl
TTITLE10=500 Miles
TTITLE11=Gentle On My Mind
TTITLE12=Arkansas
TTITLE13=I'm So Lonesome I Could Cry
TTITLE14=True Grit
TTITLE15=Oklahoma Sunday Morning
EXTD=
EXTT0=
EXTT1=
EXTT2=
EXTT3=
EXTT4=
EXTT5=
EXTT6=
EXTT7=
EXTT8=
EXTT9=
EXTT10=
EXTT11=
EXTT12=
EXTT13=
EXTT14=
EXTT15=
PLAYORDER=
